Adsworth-8PTG0XTdb.ufo
<glyph name="A" format="2">
  <advance width="1401"/>
  <outline>
    <contour>
      <point x="1202.0" y="335.0" type="line"/>
      <point x="230.0" y="335.0" type="line"/>
      <point x="248.0" y="495.0" type="line"/>
      <point x="1153.0" y="495.0" type="line"/>
    </contour>
    <contour>
      <point x="786.0" y="1500.0" type="line"/>
      <point x="1381.0" y="0.0" type="line"/>
      <point x="1184.0" y="0.0" type="line"/>
      <point x="712.0" y="1227.0" type="line"/>
      <point x="691.0" y="1228.0" type="line"/>
      <point x="228.0" y="0.0" type="line"/>
      <point x="20.0" y="0.0" type="line"/>
      <point x="614.0" y="1499.0" type="line"/>
    </contour>
  </outline>
</glyph>
<glyph name="B" format="2">
  <advance width="1454"/>
  <outline>
    <contour>
      <point x="275.0" y="0.0" type="line"/>
      <point x="275.0" y="1500.0" type="line"/>
      <point x="464.0" y="1500.0" type="line"/>
      <point x="464.0" y="0.0" type="line"/>
    </contour>
    <contour>
      <point x="888.0" y="835.0" type="line"/>
      <point x="1100.0" y="845.0"/>
      <point x="1354" y="638"/>
      <point x="1354.0" y="452.0" type="qcurve" smooth="yes"/>
      <point x="1354.0" y="425.0" type="line" smooth="yes"/>
      <point x="1354.0" y="228.0"/>
      <point x="1093.0" y="0.0"/>
      <point x="890.0" y="0.0" type="qcurve" smooth="yes"/>
      <point x="354.0" y="0.0" type="line"/>
      <point x="354.0" y="146.0" type="line"/>
      <point x="823.0" y="146.0" type="line" smooth="yes"/>
      <point x="1005.0" y="146.0"/>
      <point x="1187" y="299"/>
      <point x="1187.0" y="436.0" type="qcurve" smooth="yes"/>
      <point x="1187.0" y="455.0" type="line" smooth="yes"/>
      <point x="1187" y="578"/>
      <point x="994" y="737"/>
      <point x="833.0" y="734.0" type="qcurve" smooth="yes"/>
      <point x="354.0" y="734.0" type="line"/>
      <point x="354.0" y="884.0" type="line"/>
      <point x="745.0" y="884.0" type="line" smooth="yes"/>
      <point x="919" y="884"/>
      <point x="1087.0" y="987.0"/>
      <point x="1087.0" y="1119.0" type="qcurve" smooth="yes"/>
      <point x="1087.0" y="1126.0" type="line" smooth="yes"/>
      <point x="1087.0" y="1233.0"/>
      <point x="948.0" y="1353.0"/>
      <point x="765.0" y="1353.0" type="qcurve" smooth="yes"/>
      <point x="354.0" y="1353.0" type="line"/>
      <point x="354.0" y="1500.0" type="line"/>
      <point x="865.0" y="1500.0" type="line" smooth="yes"/>
      <point x="1042.0" y="1500.0"/>
      <point x="1255.0" y="1309.0"/>
      <point x="1255.0" y="1151.0" type="qcurve" smooth="yes"/>
      <point x="1255.0" y="1140.0" type="line" smooth="yes"/>
      <point x="1255.0" y="972.0"/>
      <point x="1065.0" y="790.0"/>
      <point x="920.0" y="790.0" type="qcurve"/>
    </contour>
  </outline>
</glyph>
<glyph name="H" format="2">
  <advance width="1700"/>
  <outline>
    <contour>
      <point x="260.0" y="0.0" type="line"/>
      <point x="260.0" y="1500.0" type="line"/>
      <point x="455.0" y="1500.0" type="line"/>
      <point x="455.0" y="0.0" type="line"/>
    </contour>
    <contour>
      <point x="1245.0" y="0.0" type="line"/>
      <point x="1245.0" y="1500.0" type="line"/>
      <point x="1440.0" y="1500.0" type="line"/>
      <point x="1440.0" y="0.0" type="line"/>
    </contour>
    <contour>
      <point x="1356.0" y="725.0" type="line"/>
      <point x="346.0" y="725.0" type="line"/>
      <point x="346.0" y="871.0" type="line"/>
      <point x="1356.0" y="871.0" type="line"/>
    </contour>
  </outline>
</glyph>
<glyph name="J" format="2">
  <advance width="1218"/>
  <outline>
    <contour>
      <point x="995.0" y="486.0" type="line" smooth="yes"/>
      <point x="995.0" y="183.0"/>
      <point x="717.0" y="-32.0"/>
      <point x="500.0" y="-32.0" type="qcurve" smooth="yes"/>
      <point x="488.0" y="-32.0" type="line" smooth="yes"/>
      <point x="237.0" y="-32.0"/>
      <point x="20.0" y="154.0"/>
      <point x="20.0" y="349.0" type="qcurve" smooth="yes"/>
      <point x="20.0" y="414.0" type="line"/>
      <point x="204.0" y="412.0" type="line"/>
      <point x="204.0" y="349.0" type="line" smooth="yes"/>
      <point x="204" y="215"/>
      <point x="337" y="107"/>
      <point x="484.0" y="107.0" type="qcurve" smooth="yes"/>
      <point x="491.0" y="107.0" type="line" smooth="yes"/>
      <point x="636" y="107"/>
      <point x="795.0" y="252.0"/>
      <point x="795.0" y="403.0" type="qcurve" smooth="yes"/>
      <point x="794.0" y="1500.0" type="line"/>
      <point x="995.0" y="1500.0" type="line"/>
    </contour>
  </outline>
</glyph>
<glyph name="K" format="2">
  <advance width="1421"/>
  <outline>
    <contour>
      <point x="254.0" y="0.0" type="line"/>
      <point x="254.0" y="1500.0" type="line"/>
      <point x="449.0" y="1500.0" type="line"/>
      <point x="449.0" y="0.0" type="line"/>
    </contour>
    <contour>
      <point x="414.0" y="637.0" type="line"/>
      <point x="647.0" y="932.0" type="line"/>
      <point x="1133.0" y="1500.0" type="line"/>
      <point x="1360.0" y="1500.0" type="line"/>
      <point x="717.0" y="761.0" type="line"/>
      <point x="686.0" y="745.0" type="line"/>
      <point x="414.0" y="413.0" type="line"/>
    </contour>
    <contour>
      <point x="596.0" y="786.0" type="line"/>
      <point x="731.0" y="909.0" type="line"/>
      <point x="1470.0" y="0.0" type="line"/>
      <point x="1229.0" y="0.0" type="line"/>
    </contour>
  </outline>
</glyph>
<glyph name="U" format="2">
  <advance width="1511"/>
  <outline>
    <contour>
      <point x="184.0" y="1500.0" type="line"/>
      <point x="380.0" y="1500.0" type="line"/>
      <point x="380.0" y="518.0" type="line" smooth="yes"/>
      <point x="380" y="316"/>
      <point x="587" y="114"/>
      <point x="748.0" y="114.0" type="qcurve" smooth="yes"/>
      <point x="757.0" y="114.0" type="line" smooth="yes"/>
      <point x="917" y="114"/>
      <point x="1140" y="327"/>
      <point x="1140.0" y="518.0" type="qcurve" smooth="yes"/>
      <point x="1140.0" y="1500.0" type="line"/>
      <point x="1327.0" y="1500.0" type="line"/>
      <point x="1323.0" y="603.0" type="line" smooth="yes"/>
      <point x="1322.0" y="291.0"/>
      <point x="1021.0" y="-33.0"/>
      <point x="760.0" y="-33.0" type="qcurve" smooth="yes"/>
      <point x="751.0" y="-33.0" type="line" smooth="yes"/>
      <point x="527.0" y="-33.0"/>
      <point x="184" y="242.0"/>
      <point x="184.0" y="593.0" type="qcurve" smooth="yes"/>
    </contour>
  </outline>
</glyph>
<glyph name="V" format="2">
  <advance width="1291"/>
  <outline>
    <contour>
      <point x="546.0" y="0.0" type="line"/>
      <point x="-20.0" y="1500.0" type="line"/>
      <point x="175.0" y="1500.0" type="line"/>
      <point x="645.0" y="233.0" type="line"/>
      <point x="1129.0" y="1500.0" type="line"/>
      <point x="1311.0" y="1500.0" type="line"/>
      <point x="732.0" y="0.0" type="line"/>
    </contour>
  </outline>
</glyph>
<glyph name="X" format="2">
  <advance width="1344"/>
  <outline>
    <contour>
      <point x="42.0" y="0.0" type="line"/>
      <point x="593.0" y="845.0" type="line"/>
      <point x="628.0" y="851.0" type="line"/>
      <point x="1046.0" y="1500.0" type="line"/>
      <point x="1252.0" y="1500.0" type="line"/>
      <point x="736.0" y="707.0" type="line"/>
      <point x="694.0" y="692.0" type="line"/>
      <point x="248.0" y="0.0" type="line"/>
    </contour>
    <contour>
      <point x="1062.0" y="0.0" type="line"/>
      <point x="610.0" y="683.0" type="line"/>
      <point x="603.0" y="689.0" type="line"/>
      <point x="63.0" y="1500.0" type="line"/>
      <point x="290.0" y="1500.0" type="line"/>
      <point x="702.0" y="874.0" type="line"/>
      <point x="711.0" y="867.0" type="line"/>
      <point x="1292.0" y="0.0" type="line"/>
    </contour>
  </outline>
</glyph>
<glyph name="Z" format="2">
  <advance width="1211"/>
  <outline>
    <contour>
      <point x="1194.0" y="0.0" type="line"/>
      <point x="34.0" y="0.0" type="line"/>
      <point x="29.0" y="148.0" type="line"/>
      <point x="934.0" y="1342.0" type="line"/>
      <point x="44.0" y="1342.0" type="line"/>
      <point x="44.0" y="1500.0" type="line"/>
      <point x="1164.0" y="1500.0" type="line"/>
      <point x="1164.0" y="1362.0" type="line"/>
      <point x="250.0" y="158.0" type="line"/>
      <point x="1194.0" y="158.0" type="line"/>
    </contour>
  </outline>
</glyph>
<glyph name="a" format="2">
  <advance width="1240"/>
  <outline>
    <contour>
      <point x="161.0" y="967.0" type="line"/>
      <point x="222.0" y="1004.0"/>
      <point x="441.0" y="1081.0"/>
      <point x="582.0" y="1081.0" type="qcurve" smooth="yes"/>
      <point x="847.0" y="1081.0"/>
      <point x="1054.0" y="902.0"/>
      <point x="1057.0" y="721.0" type="qcurve" smooth="yes"/>
      <point x="1060.0" y="1.0" type="line"/>
      <point x="888.0" y="1.0" type="line"/>
      <point x="878.0" y="753.0" type="line" smooth="yes"/>
      <point x="877.0" y="841.0"/>
      <point x="740.0" y="949.0"/>
      <point x="591.0" y="949.0" type="qcurve" smooth="yes"/>
      <point x="501.0" y="949.0"/>
      <point x="262.0" y="883.0"/>
      <point x="183.0" y="827.0" type="qcurve"/>
    </contour>
    <contour>
      <point x="1035.0" y="300.0" type="line"/>
      <point x="980.0" y="190.0"/>
      <point x="689.0" y="-22.0"/>
      <point x="518.0" y="-22.0" type="qcurve" smooth="yes"/>
      <point x="313.0" y="-22.0"/>
      <point x="79.0" y="151.0"/>
      <point x="79.0" y="308.0" type="qcurve" smooth="yes"/>
      <point x="79.0" y="451.0"/>
      <point x="329" y="670"/>
      <point x="525.0" y="670.0" type="qcurve" smooth="yes"/>
      <point x="718.0" y="670.0"/>
      <point x="968.0" y="539.0"/>
      <point x="1037.0" y="476.0" type="qcurve"/>
      <point x="986" y="429" type="line"/>
      <point x="908" y="480"/>
      <point x="711" y="548"/>
      <point x="571" y="548" type="qcurve" smooth="yes"/>
      <point x="441" y="548"/>
      <point x="265" y="420"/>
      <point x="265.0" y="308.0" type="qcurve" smooth="yes"/>
      <point x="265.0" y="204"/>
      <point x="415" y="115"/>
      <point x="559" y="115" type="qcurve" smooth="yes"/>
      <point x="700" y="115"/>
      <point x="900" y="211"/>
      <point x="977" y="326" type="qcurve"/>
    </contour>
  </outline>
</glyph>
<glyph name="ampersand" format="2">
  <advance width="1431"/>
  <outline>
    <contour>
      <point x="857.0" y="652.0" type="line"/>
      <point x="1339.0" y="805.0" type="line"/>
      <point x="1383.0" y="680.0" type="line"/>
      <point x="897.0" y="528.0" type="line"/>
    </contour>
    <contour>
      <point x="765.0" y="715.0" type="line"/>
      <point x="621.0" y="715.0" type="line" smooth="yes"/>
      <point x="492" y="715.0"/>
      <point x="283" y="555"/>
      <point x="283.0" y="428.0" type="qcurve" smooth="yes"/>
      <point x="283.0" y="419.0" type="line" smooth="yes"/>
      <point x="283" y="269"/>
      <point x="482.0" y="102.0"/>
      <point x="666.0" y="102.0" type="qcurve" smooth="yes"/>
      <point x="695.0" y="102.0" type="line" smooth="yes"/>
      <point x="887.0" y="102.0"/>
      <point x="1109.0" y="263.0"/>
      <point x="1109.0" y="424.0" type="qcurve" smooth="yes"/>
      <point x="1109.0" y="435.0" type="line" smooth="yes"/>
      <point x="1109.0" y="486.0"/>
      <point x="1073.0" y="586.0"/>
      <point x="1051.0" y="624.0" type="qcurve"/>
      <point x="1156.0" y="651.0" type="line"/>
      <point x="1196.0" y="613.0"/>
      <point x="1264.0" y="461.0"/>
      <point x="1264.0" y="402.0" type="qcurve" smooth="yes"/>
      <point x="1264.0" y="389.0" type="line" smooth="yes"/>
      <point x="1264.0" y="238.0"/>
      <point x="969.0" y="-35.0"/>
      <point x="676.0" y="-35.0" type="qcurve" smooth="yes"/>
      <point x="669.0" y="-35.0" type="line" smooth="yes"/>
      <point x="392.0" y="-35.0"/>
      <point x="103" y="212"/>
      <point x="103.0" y="401.0" type="qcurve" smooth="yes"/>
      <point x="103.0" y="431.0" type="line" smooth="yes"/>
      <point x="103" y="586"/>
      <point x="289.0" y="773.0"/>
      <point x="415.0" y="795.0" type="qcurve"/>
      <point x="300.0" y="816.0"/>
      <point x="152" y="974"/>
      <point x="152.0" y="1112.0" type="qcurve" smooth="yes"/>
      <point x="152.0" y="1138.0" type="line" smooth="yes"/>
      <point x="152" y="1305"/>
      <point x="421" y="1523"/>
      <point x="601.0" y="1523.0" type="qcurve" smooth="yes"/>
      <point x="607.0" y="1523.0" type="line" smooth="yes"/>
      <point x="802" y="1523"/>
      <point x="1072" y="1326"/>
      <point x="1063.0" y="1149.0" type="qcurve" smooth="yes"/>
      <point x="1063.0" y="1130.0" type="line"/>
      <point x="901.0" y="1132.0" type="line"/>
      <point x="901.0" y="1153.0" type="line" smooth="yes"/>
      <point x="901" y="1260"/>
      <point x="761.0" y="1392.0"/>
      <point x="616.0" y="1392.0" type="qcurve" smooth="yes"/>
      <point x="612.0" y="1392.0" type="line" smooth="yes"/>
      <point x="477.0" y="1392.0"/>
      <point x="330" y="1250"/>
      <point x="330.0" y="1119.0" type="qcurve" smooth="yes"/>
      <point x="330.0" y="1099.0" type="line" smooth="yes"/>
      <point x="330" y="980"/>
      <point x="481.0" y="837.0"/>
      <point x="586.0" y="837.0" type="qcurve" smooth="yes"/>
      <point x="748.0" y="837.0" type="line"/>
    </contour>
  </outline>
</glyph>
<glyph name="asterisk" format="2">
  <advance width="1217"/>
  <outline>
    <contour>
      <point x="640.0" y="929.0" type="line"/>
      <point x="400.0" y="530.0" type="line"/>
      <point x="256.0" y="639.0" type="line"/>
      <point x="548.0" y="998.0" type="line"/>
      <point x="121.0" y="1107.0" type="line"/>
      <point x="186.0" y="1284.0" type="line"/>
      <point x="582.0" y="1118.0" type="line"/>
      <point x="546.0" y="1554.0" type="line"/>
      <point x="734.0" y="1554.0" type="line"/>
      <point x="697.0" y="1118.0" type="line"/>
      <point x="1101.0" y="1283.0" type="line"/>
      <point x="1161.0" y="1105.0" type="line"/>
      <point x="729.0" y="1001.0" type="line"/>
      <point x="1031.0" y="639.0" type="line"/>
      <point x="880.0" y="531.0" type="line"/>
    </contour>
  </outline>
</glyph>
<glyph name="backslash" format="2">
  <advance width="724"/>
  <outline>
    <contour>
      <point x="772.0" y="0.0" type="line"/>
      <point x="608.0" y="0.0" type="line"/>
      <point x="-32.0" y="1500.0" type="line"/>
      <point x="132.0" y="1500.0" type="line"/>
    </contour>
  </outline>
</glyph>
<glyph name="comma" format="2">
  <advance width="760"/>
  <outline>
    <contour>
      <point x="175.0" y="-175.0" type="line"/>
      <point x="298.0" y="184.0" type="line" smooth="yes"/>
      <point x="319.0" y="254.0"/>
      <point x="398" y="350"/>
      <point x="438.0" y="350.0" type="qcurve" smooth="yes"/>
      <point x="440.0" y="350.0" type="line" smooth="yes"/>
      <point x="488.0" y="350.0"/>
      <point x="534.0" y="281.0"/>
      <point x="507.0" y="202.0" type="qcurve" smooth="yes"/>
      <point x="502.0" y="186.0" type="line" smooth="yes"/>
      <point x="485.0" y="131.0"/>
      <point x="342.0" y="-112.0"/>
      <point x="283.0" y="-208.0" type="qcurve"/>
    </contour>
  </outline>
</glyph>
<glyph name="d" format="2">
  <advance width="1358"/>
  <outline>
    <contour>
      <point x="1219.0" y="0.0" type="line"/>
      <point x="1059.0" y="0.0" type="line"/>
      <point x="1039.0" y="1540.0" type="line"/>
      <point x="1219.0" y="1540.0" type="line"/>
    </contour>
    <contour>
      <point x="1147.0" y="541.0" type="qcurve" smooth="yes"/>
      <point x="1147.0" y="506.0" type="line" smooth="yes"/>
      <point x="1147.0" y="265.0"/>
      <point x="837" y="-25"/>
      <point x="614" y="-25.0" type="qcurve" smooth="yes"/>
      <point x="605" y="-25.0" type="line" smooth="yes"/>
      <point x="372" y="-25"/>
      <point x="102.0" y="284.0"/>
      <point x="102.0" y="506.0" type="qcurve" smooth="yes"/>
      <point x="102.0" y="541.0" type="line" smooth="yes"/>
      <point x="102.0" y="762.0"/>
      <point x="396.0" y="1083.0"/>
      <point x="650.0" y="1083.0" type="qcurve" smooth="yes"/>
      <point x="657.0" y="1083.0" type="line" smooth="yes"/>
      <point x="893.0" y="1083.0"/>
      <point x="1147.0" y="810.0"/>
    </contour>
    <contour>
      <point x="1051.0" y="542" type="line" smooth="yes"/>
      <point x="1051.0" y="780"/>
      <point x="824.0" y="947"/>
      <point x="673.0" y="947" type="qcurve" smooth="yes"/>
      <point x="665.0" y="947" type="line" smooth="yes"/>
      <point x="513.0" y="947"/>
      <point x="286.0" y="739"/>
      <point x="286.0" y="542" type="qcurve" smooth="yes"/>
      <point x="286.0" y="514" type="line" smooth="yes"/>
      <point x="286.0" y="318"/>
      <point x="525.0" y="108.0"/>
      <point x="663.0" y="108.0" type="qcurve" smooth="yes"/>
      <point x="671.0" y="108.0" type="line" smooth="yes"/>
      <point x="825.0" y="108.0"/>
      <point x="1051.0" y="309"/>
      <point x="1051.0" y="514" type="qcurve" smooth="yes"/>
    </contour>
  </outline>
</glyph>
<glyph name="dollar" format="2">
  <advance width="1275"/>
  <outline>
    <contour>
      <point x="1024.0" y="400.0" type="line" smooth="yes"/>
      <point x="1024.0" y="525.0"/>
      <point x="825.0" y="658.0"/>
      <point x="596.0" y="733.0" type="qcurve" smooth="yes"/>
      <point x="380.0" y="809.0"/>
      <point x="108.0" y="991.0"/>
      <point x="108.0" y="1168.0" type="qcurve" smooth="yes"/>
      <point x="108.0" y="1183.0" type="line" smooth="yes"/>
      <point x="108.0" y="1342.0"/>
      <point x="391.0" y="1531.0"/>
      <point x="609.0" y="1531.0" type="qcurve" smooth="yes"/>
      <point x="620.0" y="1531.0" type="line" smooth="yes"/>
      <point x="853.0" y="1531.0"/>
      <point x="1126.0" y="1314.0"/>
      <point x="1121.0" y="1109.0" type="qcurve" smooth="yes"/>
      <point x="1121.0" y="1076.0" type="line"/>
      <point x="959.0" y="1076.0" type="line"/>
      <point x="959.0" y="1142.0" type="line" smooth="yes"/>
      <point x="959.0" y="1264.0"/>
      <point x="776.0" y="1400.0"/>
      <point x="624.0" y="1400.0" type="qcurve" smooth="yes"/>
      <point x="592.0" y="1400.0" type="line" smooth="yes"/>
      <point x="448.0" y="1400.0"/>
      <point x="277.0" y="1280.0"/>
      <point x="277.0" y="1173.0" type="qcurve" smooth="yes"/>
      <point x="277.0" y="1143.0" type="line" smooth="yes"/>
      <point x="277.0" y="1053.0"/>
      <point x="453.0" y="937.0"/>
      <point x="680.0" y="868.0" type="qcurve" smooth="yes"/>
      <point x="899.0" y="801.0"/>
      <point x="1189.0" y="591.0"/>
      <point x="1189.0" y="408.0" type="qcurve" smooth="yes"/>
      <point x="1189.0" y="384.0" type="line" smooth="yes"/>
      <point x="1189.0" y="200.0"/>
      <point x="888.0" y="-33.0"/>
      <point x="637.0" y="-33.0" type="qcurve" smooth="yes"/>
      <point x="632.0" y="-33.0" type="line" smooth="yes"/>
      <point x="358.0" y="-33.0"/>
      <point x="93.0" y="221.0"/>
      <point x="91.0" y="396.0" type="qcurve" smooth="yes"/>
      <point x="91.0" y="476.0" type="line"/>
      <point x="237.0" y="476.0" type="line"/>
      <point x="237.0" y="381.0" type="line" smooth="yes"/>
      <point x="237.0" y="259.0"/>
      <point x="416" y="88"/>
      <point x="629.0" y="88.0" type="qcurve" smooth="yes"/>
      <point x="637.0" y="88.0" type="line" smooth="yes"/>
      <point x="825" y="88"/>
      <point x="1024.0" y="270.0"/>
      <point x="1024.0" y="369.0" type="qcurve" smooth="yes"/>
    </contour>
    <contour>
      <point x="563.0" y="-130.0" type="line"/>
      <point x="563.0" y="572.0" type="line"/>
      <point x="673.0" y="572.0" type="line"/>
      <point x="673.0" y="-130.0" type="line"/>
    </contour>
    <contour>
      <point x="563.0" y="1019.0" type="line"/>
      <point x="563.0" y="1593.0" type="line"/>
      <point x="673.0" y="1593.0" type="line"/>
      <point x="673.0" y="1019.0" type="line"/>
    </contour>
  </outline>
</glyph>
<glyph name="e" format="2">
  <advance width="1247"/>
  <outline>
    <contour>
      <point x="1186.0" y="358.0" type="line"/>
      <point x="1184.0" y="344.0" type="line" smooth="yes"/>
      <point x="1162.0" y="188.0"/>
      <point x="902.0" y="-25.0"/>
      <point x="660.0" y="-25.0" type="qcurve" smooth="yes"/>
      <point x="654.0" y="-25.0" type="line" smooth="yes"/>
      <point x="399.0" y="-25.0"/>
      <point x="100.0" y="243.0"/>
      <point x="100.0" y="505.0" type="qcurve" smooth="yes"/>
      <point x="100.0" y="540.0" type="line" smooth="yes"/>
      <point x="100.0" y="781.0"/>
      <point x="402.0" y="1082.0"/>
      <point x="642.0" y="1082.0" type="qcurve" smooth="yes"/>
      <point x="664.0" y="1082.0" type="line" smooth="yes"/>
      <point x="913.0" y="1082.0"/>
      <point x="1174" y="830"/>
      <point x="1187.0" y="590.0" type="qcurve" smooth="yes"/>
      <point x="1192.0" y="494.0" type="line"/>
      <point x="131.0" y="494.0" type="line"/>
      <point x="131.0" y="616.0" type="line"/>
      <point x="1011.0" y="616.0" type="line"/>
      <point x="1010.0" y="633.0" type="line" smooth="yes"/>
      <point x="1001" y="778"/>
      <point x="825" y="972"/>
      <point x="662.0" y="972.0" type="qcurve" smooth="yes"/>
      <point x="657.0" y="972.0" type="line" smooth="yes"/>
      <point x="507" y="972"/>
      <point x="281.0" y="739.0"/>
      <point x="281.0" y="536.0" type="qcurve" smooth="yes"/>
      <point x="281.0" y="504.0" type="line" smooth="yes"/>
      <point x="281.0" y="292.0"/>
      <point x="508" y="101"/>
      <point x="654.0" y="101.0" type="qcurve" smooth="yes"/>
      <point x="666.0" y="101.0" type="line" smooth="yes"/>
      <point x="803" y="101"/>
      <point x="999.0" y="220.0"/>
      <point x="1017.0" y="325.0" type="qcurve" smooth="yes"/>
      <point x="1025.0" y="363.0" type="line"/>
    </contour>
  </outline>
</glyph>
<glyph name="equal" format="2">
  <advance width="1500"/>
  <outline>
    <contour>
      <point x="1226.0" y="443.0" type="line"/>
      <point x="266.0" y="443.0" type="line"/>
      <point x="266.0" y="593.0" type="line"/>
      <point x="1226.0" y="593.0" type="line"/>
    </contour>
    <contour>
      <point x="1226.0" y="835.0" type="line"/>
      <point x="266.0" y="835.0" type="line"/>
      <point x="266.0" y="985.0" type="line"/>
      <point x="1226.0" y="985.0" type="line"/>
    </contour>
  </outline>
</glyph>
<glyph name="five" format="2">
  <advance width="1046"/>
  <outline>
    <contour>
      <point x="578.0" y="1019.0" type="line" smooth="yes"/>
      <point x="757.0" y="1019.0"/>
      <point x="1003.0" y="765.0"/>
      <point x="1003.0" y="510.0" type="qcurve" smooth="yes"/>
      <point x="1003.0" y="500.0" type="line" smooth="yes"/>
      <point x="1003.0" y="269.0"/>
      <point x="736.0" y="-25.0"/>
      <point x="518.0" y="-25.0" type="qcurve" smooth="yes"/>
      <point x="497.0" y="-25.0" type="line" smooth="yes"/>
      <point x="285.0" y="-25.0"/>
      <point x="64" y="196"/>
      <point x="48.0" y="352.0" type="qcurve" smooth="yes"/>
      <point x="46.0" y="468.0" type="line"/>
      <point x="227.0" y="470.0" type="line"/>
      <point x="227.0" y="407" type="line" smooth="yes"/>
      <point x="227" y="240"/>
      <point x="377" y="98"/>
      <point x="517.0" y="98.0" type="qcurve" smooth="yes"/>
      <point x="523.0" y="98.0" type="line" smooth="yes"/>
      <point x="661" y="98"/>
      <point x="841.0" y="275.0"/>
      <point x="841.0" y="476.0" type="qcurve" smooth="yes"/>
      <point x="841.0" y="510.0" type="line" smooth="yes"/>
      <point x="841.0" y="707.0"/>
      <point x="661" y="879"/>
      <point x="548.0" y="879.0" type="qcurve" smooth="yes"/>
      <point x="523.0" y="879.0" type="line" smooth="yes"/>
      <point x="425" y="879"/>
      <point x="273.0" y="757.0"/>
      <point x="246.0" y="681.0" type="qcurve"/>
      <point x="63.0" y="682.0" type="line"/>
      <point x="105.0" y="1500.0" type="line"/>
      <point x="909.0" y="1500.0" type="line"/>
      <point x="909.0" y="1357.0" type="line"/>
      <point x="237.0" y="1357.0" type="line"/>
      <point x="206.0" y="827.0" type="line"/>
      <point x="222.0" y="874.0"/>
      <point x="412.0" y="1019.0"/>
      <point x="540.0" y="1019.0" type="qcurve" smooth="yes"/>
    </contour>
  </outline>
</glyph>
<glyph name="four" format="2">
  <advance width="1146"/>
  <outline>
    <contour>
      <point x="696.0" y="0.0" type="line"/>
      <point x="716.0" y="1510.0" type="line"/>
      <point x="876.0" y="1507.0" type="line"/>
      <point x="876.0" y="2.0" type="line"/>
    </contour>
    <contour>
      <point x="1103.0" y="537.0" type="line"/>
      <point x="1103.0" y="398.0" type="line"/>
      <point x="64.0" y="398.0" type="line"/>
      <point x="48.0" y="570.0" type="line"/>
      <point x="683.0" y="1562.0" type="line"/>
      <point x="803.0" y="1508.0" type="line"/>
      <point x="187.0" y="537.0" type="line"/>
    </contour>
  </outline>
</glyph>
<glyph name="g" format="2">
  <advance width="1408"/>
  <outline>
    <contour>
      <point x="1137.0" y="541.0" type="qcurve" smooth="yes"/>
      <point x="1137.0" y="506.0" type="line" smooth="yes"/>
      <point x="1137" y="285"/>
      <point x="847.0" y="-35.0"/>
      <point x="643.0" y="-35.0" type="qcurve" smooth="yes"/>
      <point x="636.0" y="-35.0" type="line" smooth="yes"/>
      <point x="382.0" y="-35.0"/>
      <point x="102.0" y="284.0"/>
      <point x="102.0" y="526.0" type="qcurve" smooth="yes"/>
      <point x="102.0" y="551.0" type="line" smooth="yes"/>
      <point x="102.0" y="772.0"/>
      <point x="396.0" y="1083.0"/>
      <point x="650.0" y="1083.0" type="qcurve" smooth="yes"/>
      <point x="657.0" y="1083.0" type="line" smooth="yes"/>
      <point x="865.0" y="1083.0"/>
      <point x="1137" y="810"/>
    </contour>
    <contour>
      <point x="1053" y="537.0" type="line" smooth="yes"/>
      <point x="1053.0" y="760.0"/>
      <point x="825" y="958.0"/>
      <point x="674" y="958.0" type="qcurve" smooth="yes"/>
      <point x="665" y="958.0" type="line" smooth="yes"/>
      <point x="513" y="958.0"/>
      <point x="286" y="747.0"/>
      <point x="286" y="537.0" type="qcurve" smooth="yes"/>
      <point x="286" y="517.0" type="line" smooth="yes"/>
      <point x="286" y="288.0"/>
      <point x="526" y="98"/>
      <point x="663" y="98.0" type="qcurve" smooth="yes"/>
      <point x="672" y="98.0" type="line" smooth="yes"/>
      <point x="826" y="98"/>
      <point x="1053.0" y="309.0"/>
      <point x="1053" y="507.0" type="qcurve" smooth="yes"/>
    </contour>
    <contour>
      <point x="260.0" y="-276.0" type="line"/>
      <point x="317.0" y="-289.0"/>
      <point x="477.0" y="-324.0"/>
      <point x="578.0" y="-324.0" type="qcurve" smooth="yes"/>
      <point x="797.0" y="-324.0"/>
      <point x="1052.0" y="-125.0"/>
      <point x="1052.0" y="98.0" type="qcurve" smooth="yes"/>
      <point x="1052.0" y="1040.0" type="line"/>
      <point x="1213.0" y="1040.0" type="line"/>
      <point x="1213.0" y="69.0" type="line" smooth="yes"/>
      <point x="1213.0" y="-194.0"/>
      <point x="876.0" y="-487.0"/>
      <point x="588.0" y="-487.0" type="qcurve" smooth="yes"/>
      <point x="489.0" y="-487.0"/>
      <point x="330.0" y="-462.0"/>
      <point x="271.0" y="-447.0" type="qcurve"/>
    </contour>
  </outline>
</glyph>
<glyph name="k" format="2">
  <advance width="1186"/>
  <outline>
    <contour>
      <point x="196.0" y="0.0" type="line"/>
      <point x="196.0" y="1540.0" type="line"/>
      <point x="376.0" y="1540.0" type="line"/>
      <point x="376.0" y="0.0" type="line"/>
    </contour>
    <contour>
      <point x="715.0" y="552.0" type="line"/>
      <point x="358.0" y="212.0" type="line"/>
      <point x="358.0" y="393.0" type="line"/>
      <point x="597.0" y="624.0" type="line"/>
      <point x="991.0" y="1040.0" type="line"/>
      <point x="1182.0" y="1040.0" type="line"/>
      <point x="768.0" y="601.0" type="line"/>
    </contour>
    <contour>
      <point x="724.0" y="660.0" type="line"/>
      <point x="1253.0" y="0.0" type="line"/>
      <point x="1054.0" y="0.0" type="line"/>
      <point x="591.0" y="564.0" type="line"/>
    </contour>
  </outline>
</glyph>
<glyph name="p" format="2">
  <advance width="1415"/>
  <outline>
    <contour>
      <point x="195.0" y="-498.0" type="line"/>
      <point x="195.0" y="1040.0" type="line"/>
      <point x="365.0" y="1040.0" type="line"/>
      <point x="375.0" y="-498.0" type="line"/>
    </contour>
    <contour>
      <point x="280.0" y="572" type="line" smooth="yes"/>
      <point x="280.0" y="807.0"/>
      <point x="573" y="1082"/>
      <point x="794.0" y="1082.0" type="qcurve" smooth="yes"/>
      <point x="802.0" y="1082.0" type="line" smooth="yes"/>
      <point x="1012.0" y="1082.0"/>
      <point x="1313.0" y="791.0"/>
      <point x="1313.0" y="540.0" type="qcurve" smooth="yes"/>
      <point x="1313.0" y="514.0" type="line" smooth="yes"/>
      <point x="1313.0" y="263.0"/>
      <point x="1046" y="-22.0"/>
      <point x="816.0" y="-22.0" type="qcurve" smooth="yes"/>
      <point x="809.0" y="-22" type="line" smooth="yes"/>
      <point x="568.0" y="-22"/>
      <point x="280.0" y="271.0"/>
      <point x="280.0" y="478" type="qcurve" smooth="yes"/>
    </contour>
    <contour>
      <point x="369" y="544.0" type="qcurve" smooth="yes"/>
      <point x="369" y="521.0" type="line" smooth="yes"/>
      <point x="369.0" y="321.0"/>
      <point x="617.0" y="102"/>
      <point x="771" y="102.0" type="qcurve" smooth="yes"/>
      <point x="780" y="102.0" type="line" smooth="yes"/>
      <point x="933.0" y="102.0"/>
      <point x="1133" y="313.0"/>
      <point x="1133" y="521.0" type="qcurve" smooth="yes"/>
      <point x="1133" y="553.0" type="line" smooth="yes"/>
      <point x="1133.0" y="743.0"/>
      <point x="933" y="948"/>
      <point x="770" y="948.0" type="qcurve" smooth="yes"/>
      <point x="761" y="948.0" type="line" smooth="yes"/>
      <point x="609" y="948"/>
      <point x="369" y="740.0"/>
    </contour>
  </outline>
</glyph>
<glyph name="r" format="2">
  <advance width="900.0"/>
  <outline>
    <contour>
      <point x="195.0" y="0.0" type="line"/>
      <point x="195.0" y="1040.0" type="line"/>
      <point x="376.0" y="1040.0" type="line"/>
      <point x="376.0" y="0.0" type="line"/>
    </contour>
    <contour>
      <point x="344.0" y="836.0" type="line"/>
      <point x="399.0" y="945.0"/>
      <point x="677.0" y="1082.0"/>
      <point x="837.0" y="1082.0" type="qcurve" smooth="yes"/>
      <point x="850.0" y="1082.0"/>
      <point x="877.0" y="1081.0"/>
      <point x="890.0" y="1080.0" type="qcurve"/>
      <point x="890.0" y="926.0" type="line"/>
      <point x="878.0" y="927.0"/>
      <point x="851.0" y="929.0"/>
      <point x="837.0" y="929.0" type="qcurve" smooth="yes"/>
      <point x="679.0" y="929.0"/>
      <point x="427.0" y="811.0"/>
      <point x="367.0" y="707.0" type="qcurve"/>
    </contour>
  </outline>
</glyph>
<glyph name="s" format="2">
  <advance width="1180"/>
  <outline>
    <contour>
      <point x="921.0" y="309.0" type="line" smooth="yes"/>
      <point x="921" y="374"/>
      <point x="793.0" y="439.0"/>
      <point x="545.0" y="496.0" type="qcurve" smooth="yes"/>
      <point x="316.0" y="549.0"/>
      <point x="130" y="663"/>
      <point x="130.0" y="789.0" type="qcurve" smooth="yes"/>
      <point x="130.0" y="799.0" type="line" smooth="yes"/>
      <point x="130" y="924"/>
      <point x="384.0" y="1081.0"/>
      <point x="600.0" y="1081.0" type="qcurve" smooth="yes"/>
      <point x="609.0" y="1081.0" type="line" smooth="yes"/>
      <point x="837.0" y="1081.0"/>
      <point x="1052.0" y="917.0"/>
      <point x="1061.0" y="776.0" type="qcurve" smooth="yes"/>
      <point x="1063.0" y="740.0" type="line"/>
      <point x="893.0" y="740.0" type="line"/>
      <point x="893.0" y="766.0" type="line" smooth="yes"/>
      <point x="893.0" y="862.0"/>
      <point x="738" y="947"/>
      <point x="600.0" y="947.0" type="qcurve" smooth="yes"/>
      <point x="594.0" y="947.0" type="line" smooth="yes"/>
      <point x="447" y="947"/>
      <point x="308" y="876"/>
      <point x="308.0" y="799.0" type="qcurve" smooth="yes"/>
      <point x="308.0" y="793.0" type="line" smooth="yes"/>
      <point x="308" y="725"/>
      <point x="456.0" y="667.0"/>
      <point x="661.0" y="621.0" type="qcurve" smooth="yes"/>
      <point x="877.0" y="572.0"/>
      <point x="1091" y="452"/>
      <point x="1091.0" y="315" type="qcurve" smooth="yes"/>
      <point x="1091.0" y="297" type="line" smooth="yes"/>
      <point x="1091" y="173"/>
      <point x="853" y="-24"/>
      <point x="600.0" y="-24.0" type="qcurve" smooth="yes"/>
      <point x="574.0" y="-24.0" type="line" smooth="yes"/>
      <point x="338.0" y="-24"/>
      <point x="102" y="162"/>
      <point x="102.0" y="295.0" type="qcurve" smooth="yes"/>
      <point x="102.0" y="334.0" type="line"/>
      <point x="291.0" y="334.0" type="line"/>
      <point x="291.0" y="317.0" type="line" smooth="yes"/>
      <point x="291.0" y="180"/>
      <point x="462.0" y="108"/>
      <point x="577.0" y="108.0" type="qcurve" smooth="yes"/>
      <point x="607.0" y="108.0" type="line" smooth="yes"/>
      <point x="756" y="108"/>
      <point x="921" y="202"/>
      <point x="921.0" y="304.0" type="qcurve" smooth="yes"/>
    </contour>
  </outline>
</glyph>
<glyph name="two" format="2">
  <advance width="981"/>
  <outline>
    <contour>
      <point x="945.0" y="0.0" type="line"/>
      <point x="35.0" y="0.0" type="line"/>
      <point x="35.0" y="92.0" type="line"/>
      <point x="612.0" y="869.0" type="line" smooth="yes"/>
      <point x="656.0" y="930.0"/>
      <point x="725" y="1075"/>
      <point x="725.0" y="1168" type="qcurve" smooth="yes"/>
      <point x="725.0" y="1189" type="line" smooth="yes"/>
      <point x="725.0" y="1274.0"/>
      <point x="596.0" y="1390.0"/>
      <point x="486.0" y="1390.0" type="qcurve" smooth="yes"/>
      <point x="474.0" y="1390.0" type="line" smooth="yes"/>
      <point x="382" y="1390"/>
      <point x="233.0" y="1268"/>
      <point x="233.0" y="1143.0" type="qcurve" smooth="yes"/>
      <point x="234.0" y="1058.0" type="line"/>
      <point x="42.0" y="1058.0" type="line"/>
      <point x="44.0" y="1170.0" type="line" smooth="yes"/>
      <point x="47" y="1336"/>
      <point x="298.0" y="1527.0"/>
      <point x="470.0" y="1527.0" type="qcurve" smooth="yes"/>
      <point x="478.0" y="1527.0" type="line" smooth="yes"/>
      <point x="673.0" y="1527.0"/>
      <point x="916" y="1338"/>
      <point x="916.0" y="1202.0" type="qcurve" smooth="yes"/>
      <point x="916.0" y="1172.0" type="line" smooth="yes"/>
      <point x="916" y="1052"/>
      <point x="833.0" y="888.0"/>
      <point x="769.0" y="804.0" type="qcurve" smooth="yes"/>
      <point x="265.0" y="138.0" type="line"/>
      <point x="945.0" y="138.0" type="line"/>
    </contour>
  </outline>
</glyph>
<glyph name="x" format="2">
  <advance width="1000"/>
  <outline>
    <contour>
      <point x="22" y="1" type="line"/>
      <point x="790" y="1040" type="line"/>
      <point x="963" y="1040" type="line"/>
      <point x="195" y="1" type="line"/>
    </contour>
    <contour>
      <point x="798" y="1" type="line"/>
      <point x="31" y="1040" type="line"/>
      <point x="232" y="1040" type="line"/>
      <point x="998" y="1" type="line"/>
    </contour>
  </outline>
</glyph>
<glyph name="y" format="2">
  <advance width="1075"/>
  <outline>
    <contour>
      <point x="443.0" y="-26.0" type="qcurve"/>
      <point x="-17.0" y="1040.0" type="line"/>
      <point x="175.0" y="1040.0" type="line"/>
      <point x="545.0" y="141.0" type="line"/>
      <point x="915.0" y="1040.0" type="line"/>
      <point x="1085.0" y="1040.0" type="line"/>
      <point x="644.0" y="-1.0" type="line" smooth="yes"/>
      <point x="523" y="-287"/>
      <point x="237.0" y="-487.0"/>
      <point x="103.0" y="-487.0" type="qcurve" smooth="yes"/>
      <point x="19.0" y="-487.0"/>
      <point x="-43.0" y="-478.0"/>
      <point x="-89.0" y="-463.0" type="qcurve"/>
      <point x="-73.0" y="-306.0" type="line"/>
      <point x="-44.0" y="-314.0"/>
      <point x="41.0" y="-332.0"/>
      <point x="114.0" y="-332.0" type="qcurve" smooth="yes"/>
      <point x="174.0" y="-332.0"/>
      <point x="387.0" y="-177.0"/>
    </contour>
  </outline>
</glyph>
<glyph name="zero" format="2">
  <advance width="1330"/>
  <outline>
    <contour>
      <point x="664.0" y="-25.0" type="line" smooth="yes"/>
      <point x="409.0" y="-25.0"/>
      <point x="103.0" y="402.0"/>
      <point x="103.0" y="724.0" type="qcurve" smooth="yes"/>
      <point x="103.0" y="775.0" type="line" smooth="yes"/>
      <point x="103.0" y="1097.0"/>
      <point x="405.0" y="1524.0"/>
      <point x="660.0" y="1524.0" type="qcurve" smooth="yes"/>
      <point x="666.0" y="1524.0" type="line" smooth="yes"/>
      <point x="925.0" y="1524.0"/>
      <point x="1227.0" y="1097.0"/>
      <point x="1227.0" y="775.0" type="qcurve" smooth="yes"/>
      <point x="1227.0" y="724.0" type="line" smooth="yes"/>
      <point x="1227.0" y="402.0"/>
      <point x="928.0" y="-25.0"/>
      <point x="670.0" y="-25.0" type="qcurve" smooth="yes"/>
    </contour>
    <contour>
      <point x="666.0" y="103.0" type="line" smooth="yes"/>
      <point x="857" y="103"/>
      <point x="1041.0" y="430.0"/>
      <point x="1041.0" y="715.0" type="qcurve" smooth="yes"/>
      <point x="1041.0" y="759.0" type="line" smooth="yes"/>
      <point x="1041.0" y="1044.0"/>
      <point x="861" y="1386"/>
      <point x="666.0" y="1386.0" type="qcurve" smooth="yes"/>
      <point x="661.0" y="1386.0" type="line" smooth="yes"/>
      <point x="477" y="1386"/>
      <point x="290.0" y="1044.0"/>
      <point x="290.0" y="759.0" type="qcurve" smooth="yes"/>
      <point x="290.0" y="715.0" type="line" smooth="yes"/>
      <point x="290.0" y="430.0"/>
      <point x="473" y="103"/>
      <point x="661.0" y="103.0" type="qcurve" smooth="yes"/>
    </contour>
  </outline>
</glyph>
